<?xml version="1.0" encoding="UTF-8" standalone="no"?>
<!-- Created with Inkscape (http://www.inkscape.org/) -->

<svg
   width="29.514999mm"
   height="16.076mm"
   viewBox="0 0 29.514999 16.076001"
   version="1.1"
   id="svg5"
   sodipodi:docname="SmattSignature.svg"
   inkscape:version="1.2.1 (9c6d41e410, 2022-07-14)"
   xmlns:inkscape="http://www.inkscape.org/namespaces/inkscape"
   xmlns:sodipodi="http://sodipodi.sourceforge.net/DTD/sodipodi-0.dtd"
   xmlns="http://www.w3.org/2000/svg"
   xmlns:svg="http://www.w3.org/2000/svg">
  <sodipodi:namedview
     id="namedview7"
     pagecolor="#ffffff"
     bordercolor="#666666"
     borderopacity="1.0"
     inkscape:pageshadow="2"
     inkscape:pageopacity="0.0"
     inkscape:pagecheckerboard="0"
     inkscape:document-units="mm"
     showgrid="false"
     inkscape:zoom="7.5748915"
     inkscape:cx="55.776377"
     inkscape:cy="30.363471"
     inkscape:window-width="1280"
     inkscape:window-height="731"
     inkscape:window-x="0"
     inkscape:window-y="0"
     inkscape:window-maximized="1"
     inkscape:current-layer="layer1"
     inkscape:showpageshadow="2"
     inkscape:deskcolor="#d1d1d1" />
  <defs
     id="defs2" />
  <g
     inkscape:label="Layer 1"
     inkscape:groupmode="layer"
     id="layer1"
     transform="translate(-80.036981,-105.64623)">
    <g
       id="g126"
       transform="translate(2.77,2.77)"
       style="fill:#2a52be;fill-opacity:1">
      <g
         aria-label="Smatt"
         id="text957"
         style="font-size:10.5833px;line-height:1.25;fill:#2a52be;stroke-width:0.264583;fill-opacity:1">
        <path
           d="m 81.846726,112.84294 q -0.497416,0 -0.910164,-0.127 -0.412749,-0.11642 -0.656165,-0.40217 -0.243416,-0.27516 -0.243416,-0.76199 0,-0.41275 0.211666,-0.78317 0.211666,-0.37041 0.571498,-0.65616 0.359833,-0.28575 0.793748,-0.42334 0.169333,-0.0529 0.380999,-0.0952 0.222249,-0.0529 0.391582,-0.0529 0.169333,0 0.169333,0.15875 0,0.11641 -0.137583,0.14816 -0.169333,0.0423 -0.349249,0.0635 -0.169333,0.0106 -0.349249,0.0635 -0.359832,0.11642 -0.677331,0.35984 -0.306916,0.23283 -0.497415,0.55033 -0.179916,0.30691 -0.179916,0.65616 0,0.39158 0.211666,0.61383 0.211666,0.22225 0.550331,0.3175 0.338666,0.0952 0.730248,0.0952 0.550331,0 1.217079,-0.14816 0.677331,-0.13759 1.365246,-0.40217 0.687914,-0.26458 1.301746,-0.62441 0.613831,-0.35984 1.05833,-0.79375 0.444498,-0.43392 0.613831,-0.92075 0.03175,-0.0847 0.05292,-0.17991 0.02117,-0.0953 0.02117,-0.1905 0,-0.29634 -0.158749,-0.45509 -0.148166,-0.16933 -0.402166,-0.24341 -0.243416,-0.0847 -0.529165,-0.10583 -0.275165,-0.0212 -0.529165,-0.0212 -0.550331,0 -1.111246,0.0529 -0.550332,0.0423 -1.111247,0.0423 -0.317499,0 -0.666747,-0.0529 -0.349249,-0.0529 -0.592665,-0.22225 -0.232833,-0.16933 -0.232833,-0.51858 0,-0.45508 0.285749,-0.80433 0.285749,-0.34925 0.751415,-0.60325 0.476248,-0.254 1.02658,-0.41275 0.560915,-0.16933 1.100663,-0.24341 0.539748,-0.0741 0.96308,-0.0741 0.243416,0 0.560915,0.0318 0.317499,0.0212 0.613831,0.10584 0.306916,0.0847 0.497415,0.26458 0.201083,0.16933 0.201083,0.45508 0,0.23283 -0.116416,0.33867 -0.116416,0.10583 -0.306916,0.24341 -0.02117,0.0106 -0.05292,0.0317 -0.02117,0.0106 -0.0635,0.0106 -0.0635,0 -0.127,-0.0423 -0.05292,-0.0529 -0.05292,-0.11641 0,-0.0953 0.09525,-0.13759 0.09525,-0.0423 0.179917,-0.10583 0.09525,-0.0635 0.09525,-0.22225 0,-0.1905 -0.179916,-0.29633 -0.169333,-0.11642 -0.433915,-0.16933 -0.253999,-0.0529 -0.507999,-0.0635 -0.243415,-0.0212 -0.402165,-0.0212 -0.349249,0 -0.804331,0.0635 -0.455082,0.0529 -0.941913,0.17992 -0.476249,0.11641 -0.910164,0.30691 -0.423332,0.1905 -0.719665,0.46567 -0.285749,0.26458 -0.370415,0.62441 -0.01058,0.0423 -0.02117,0.0847 0,0.0318 0,0.0741 0,0.254 0.201083,0.37042 0.201083,0.10583 0.476249,0.127 0.275165,0.0212 0.486831,0.0212 0.560915,0 1.111247,-0.0423 0.550331,-0.0423 1.100663,-0.0423 0.328082,0 0.666748,0.0423 0.349249,0.0317 0.634998,0.14817 0.296332,0.10583 0.476248,0.32808 0.179916,0.21166 0.179916,0.5715 0,0.23283 -0.09525,0.47624 -0.1905,0.53975 -0.656165,1.016 -0.465665,0.46567 -1.111246,0.84667 -0.645582,0.38099 -1.375829,0.65616 -0.719665,0.27517 -1.439329,0.42333 -0.709081,0.14817 -1.322912,0.14817 z"
           style="font-family:'Ms Madi';-inkscape-font-specification:'Ms Madi, Normal';fill:#2a52be;fill-opacity:1"
           id="path4619" />
        <path
           d="m 87.551117,112.45136 c -0.03528,0 -0.07409,-0.0106 -0.116417,-0.0317 -0.04233,-0.0212 -0.0635,-0.0494 -0.0635,-0.0847 0,-0.0212 0.0035,-0.0459 0.01058,-0.0741 0.0071,-0.0282 0.01411,-0.0529 0.02117,-0.0741 0.07761,-0.17639 0.116161,-0.2465 0.257272,-0.52167 0.141111,-0.27517 0.515631,-0.70756 0.515631,-0.70756 l 0.560593,-0.74986 c 0.582082,-0.5715 0.419805,-0.42333 0.582082,-0.5715 0.169333,-0.14817 0.335138,-0.28575 0.497415,-0.41275 0.162277,-0.13405 0.33161,-0.20108 0.507998,-0.20108 0.148166,0 0.271638,0.0529 0.370416,0.15875 0.105833,0.10583 0.158749,0.26105 0.158749,0.46566 0,0.0635 -0.0071,0.13755 -0.02117,0.22225 -0.0071,0.0776 -0.02822,0.18697 -0.0635,0.32808 0.239888,-0.26105 0.493887,-0.49036 0.761997,-0.68791 0.275166,-0.19755 0.529165,-0.35983 0.761998,-0.48683 0.239888,-0.13406 0.42686,-0.21873 0.560915,-0.254 0.07055,-0.0212 0.137583,-0.0388 0.201082,-0.0529 0.07055,-0.0141 0.134055,-0.0212 0.1905,-0.0212 0.07055,0 0.127,0.0176 0.169333,0.0529 0.04233,0.0353 0.0635,0.10229 0.0635,0.20108 0,0.0988 -0.0635,0.23989 -0.190499,0.42334 -0.126999,0.17639 -0.282221,0.381 -0.465665,0.61383 -0.176389,0.22577 -0.345722,0.45508 -0.507999,0.68791 -0.162277,0.23283 -0.278693,0.45156 -0.349248,0.65617 -0.03528,0.11994 -0.05292,0.20813 -0.05292,0.26458 0,0.1905 0.08819,0.28575 0.264583,0.28575 0.119944,0 0.264582,-0.0564 0.433915,-0.16933 0.183444,-0.11995 0.380999,-0.31398 0.592665,-0.58209 0.211666,-0.26811 0.409221,-0.54327 0.592664,-0.82549 0.04233,-0.0635 0.09878,-0.0952 0.169333,-0.0952 0.04939,0 0.08114,0.0141 0.09525,0.0423 0.01411,0.0212 0.02117,0.0424 0.02117,0.0635 0,0.0353 -0.03528,0.11993 -0.105833,0.254 -0.0635,0.13405 -0.172861,0.30339 -0.328082,0.508 -0.197555,0.26105 -0.377471,0.46919 -0.539748,0.62441 -0.155222,0.14817 -0.282222,0.25047 -0.380999,0.30692 -0.09172,0.0565 -0.186972,0.0988 -0.285749,0.127 -0.09878,0.0212 -0.197555,0.0318 -0.296332,0.0318 -0.225777,0 -0.388055,-0.0459 -0.486832,-0.13759 -0.09878,-0.0988 -0.148166,-0.21519 -0.148166,-0.34924 0,-0.18345 0.05997,-0.39159 0.179916,-0.62442 0.126999,-0.23283 0.275165,-0.46567 0.444498,-0.6985 0.169333,-0.23989 0.328083,-0.45508 0.476249,-0.64558 0.155221,-0.1905 0.261054,-0.32808 0.317499,-0.41275 0.02822,-0.0353 0.04233,-0.0705 0.04233,-0.10583 0,-0.0565 -0.03881,-0.0847 -0.116416,-0.0847 -0.04233,0 -0.09172,0.0106 -0.148167,0.0318 -0.289277,0.11995 -0.575026,0.28575 -0.857247,0.49742 -0.282221,0.20461 -0.53622,0.41274 -0.761997,0.62441 -0.218722,0.21167 -0.388055,0.38806 -0.507999,0.52917 -0.02822,0.0988 -0.06703,0.23283 -0.116416,0.40216 -0.04939,0.16228 -0.116414,0.30692 -0.201083,0.43392 -0.08467,0.127 -0.194027,0.1905 -0.328082,0.1905 -0.0635,0 -0.116417,-0.0212 -0.15875,-0.0635 -0.03528,-0.0494 -0.05292,-0.0988 -0.05292,-0.14817 0,-0.18344 0.05644,-0.35277 0.169333,-0.508 0.112889,-0.15522 0.243416,-0.29986 0.391582,-0.43391 0.03528,-0.11995 0.08467,-0.27517 0.148166,-0.46567 0.0635,-0.19755 0.09525,-0.36336 0.09525,-0.49741 0,-0.11289 -0.02822,-0.20108 -0.08467,-0.26458 -0.04939,-0.0635 -0.112886,-0.0952 -0.190499,-0.0952 -0.09172,0 -0.183444,0.0353 -0.275166,0.10583 -0.345721,0.23989 -0.652636,0.53622 -0.920747,0.889 -0.26811,0.34572 -0.507998,0.68438 -0.719664,1.01599 -0.112889,0.16228 -0.218722,0.33161 -0.317499,0.508 -0.09172,0.17639 -0.194027,0.34572 -0.306916,0.508 -0.02117,0.0282 -0.04233,0.0494 -0.0635,0.0635 -0.02117,0.0141 -0.05292,0.0212 -0.09525,0.0212 z"
           style="font-family:'Ms Madi';-inkscape-font-specification:'Ms Madi, Normal';fill:#2a52be;fill-opacity:1"
           id="path4621"
           sodipodi:nodetypes="ccsscsccccscsccccccsssccscsscscscscccccscsccccsscccccsscssccscscccccscc" />
        <path
           d="m 93.964583,112.30319 q -0.349248,0 -0.486831,-0.17992 -0.127,-0.1905 -0.127,-0.45508 0,-0.254 0.08467,-0.52916 0.08467,-0.27517 0.179917,-0.508 0.105833,-0.24342 0.169332,-0.35983 0.1905,-0.32809 0.423332,-0.635 0.243416,-0.30692 0.518582,-0.53975 0.275166,-0.24342 0.560915,-0.37042 0.296332,-0.13758 0.592665,-0.13758 0.507998,0 0.719664,0.27517 0.211666,0.26458 0.211666,0.5715 0,0.10583 -0.03175,0.22224 -0.04233,0.15875 -0.105833,0.27517 -0.05292,0.11642 -0.137583,0.11642 -0.07408,0 -0.137583,-0.0741 -0.0635,-0.0741 -0.04233,-0.14816 0.02117,-0.0741 0.05292,-0.14817 0.04233,-0.0741 0.05292,-0.14816 0.01058,-0.0529 0.01058,-0.0953 0.01058,-0.0423 0.01058,-0.0847 0,-0.28575 -0.1905,-0.39158 -0.179916,-0.11642 -0.391582,-0.11642 -0.243416,0 -0.507998,0.13758 -0.253999,0.13759 -0.444499,0.3175 -0.232832,0.23284 -0.465665,0.53975 -0.232832,0.30692 -0.402165,0.62442 -0.02117,0.0529 -0.116417,0.25399 -0.08467,0.20109 -0.169332,0.45509 -0.07408,0.24341 -0.07408,0.45508 0,0.14816 0.0635,0.254 0.07408,0.10583 0.243416,0.10583 0.179916,0 0.412749,-0.16933 0.243416,-0.16933 0.486832,-0.41275 0.253999,-0.254 0.455082,-0.48683 0.201082,-0.23284 0.296332,-0.35983 0.0635,-0.0847 0.116416,-0.17992 0.0635,-0.10583 0.127,-0.1905 0.03175,-0.0423 0.126999,-0.0423 0.08467,0 0.169333,0.0529 0.09525,0.0423 0.07408,0.127 -0.04233,0.0741 -0.158749,0.32809 -0.105833,0.24341 -0.201083,0.53974 -0.09525,0.28575 -0.09525,0.508 0,0.27517 0.169333,0.3175 0.116417,0.0212 0.243416,-0.0847 0.137583,-0.10583 0.243416,-0.24341 0.116416,-0.13758 0.169333,-0.20108 0.222249,-0.29634 0.412749,-0.60325 0.201082,-0.3175 0.402165,-0.59267 0.0635,-0.0847 0.148166,-0.0847 0.148166,0 0.148166,0.15875 0,0.0529 -0.137583,0.27516 -0.137582,0.21167 -0.338665,0.48683 -0.1905,0.27517 -0.359832,0.49742 -0.169333,0.22225 -0.380999,0.43391 -0.211666,0.21167 -0.539748,0.21167 -0.306916,0 -0.423332,-0.13758 -0.105833,-0.13759 -0.105833,-0.30692 0,-0.14816 0.03175,-0.30691 0.03175,-0.16934 0.0635,-0.28575 l -0.04233,-0.0318 q -0.09525,0.11641 -0.285749,0.29633 -0.190499,0.17992 -0.423332,0.37041 -0.232833,0.17992 -0.465665,0.30692 -0.222249,0.127 -0.402166,0.127 z"
           style="font-family:'Ms Madi';-inkscape-font-specification:'Ms Madi, Normal';fill:#2a52be;fill-opacity:1"
           id="path4623" />
        <path
           d="m 97.83806,112.64186 c -0.141111,0 -0.246944,-0.0459 -0.317499,-0.13759 -0.07055,-0.0847 -0.116416,-0.18697 -0.137583,-0.30691 -0.02117,-0.11995 -0.03175,-0.22578 -0.03175,-0.3175 0,-0.28928 0.05292,-0.61384 0.15875,-0.97367 0.105833,-0.35983 0.229304,-0.71966 0.370415,-1.07949 0.148167,-0.35983 0.282222,-0.68086 0.402166,-0.96308 l 0.169333,-0.35986 c 0.04233,-0.0776 0.102305,-0.19756 0.179916,-0.35984 0.07761,-0.16227 0.165805,-0.33513 0.264582,-0.51858 0.09878,-0.1905 0.194027,-0.35983 0.285749,-0.508 0.09878,-0.15522 0.179916,-0.26458 0.243416,-0.32808 0.04233,-0.0423 0.08819,-0.0635 0.137583,-0.0635 0.04939,0 0.09172,0.0141 0.127,0.0423 0.03528,0.0282 0.05292,0.0635 0.05292,0.10584 0,0.0212 -0.01058,0.0494 -0.03175,0.0847 -0.176388,0.21873 -0.324554,0.45862 -0.444498,0.71967 -0.119944,0.26105 -0.239888,0.51505 -0.359833,0.762 l -0.169332,0.34933 c -0.09172,0.21167 -0.197555,0.44803 -0.317499,0.70909 -0.119944,0.26105 -0.23636,0.53269 -0.349249,0.81491 -0.105833,0.27517 -0.194028,0.54328 -0.264583,0.80433 -0.07055,0.26105 -0.105833,0.49741 -0.105833,0.70908 v 0.17992 c 0.0071,0.0776 0.02469,0.14816 0.05292,0.21166 0.02822,0.0635 0.07055,0.0953 0.126999,0.0953 0.119944,0 0.204611,-0.0318 0.254,-0.0953 0.04939,-0.0635 0.105831,-0.0952 0.169332,-0.0952 0.04939,0 0.09172,0.0141 0.127,0.0423 0.04233,0.0282 0.0635,0.0635 0.0635,0.10583 0,0.0635 -0.04233,0.12351 -0.127,0.17992 -0.07761,0.0565 -0.169333,0.10233 -0.275166,0.13758 -0.105833,0.0353 -0.190499,0.0529 -0.253999,0.0529 z"
           style="font-family:'Ms Madi';-inkscape-font-specification:'Ms Madi, Normal';fill:#2a52be;fill-opacity:1"
           id="path4625"
           sodipodi:nodetypes="ccssscccsccsssscsccscsscsscscscscc" />
        <path
           d="m 99.954708,112.64186 c -0.141111,0 -0.246944,-0.0459 -0.317499,-0.13759 -0.07055,-0.0847 -0.116416,-0.18697 -0.137583,-0.30691 -0.02117,-0.11995 -0.03175,-0.22578 -0.03175,-0.3175 0,-0.28928 0.05292,-0.61384 0.15875,-0.97367 0.105833,-0.35983 0.229304,-0.71966 0.370415,-1.07949 0.148169,-0.35983 0.282219,-0.68086 0.402169,-0.96308 l 0.16933,-0.35986 c 0.0423,-0.0776 0.10231,-0.19756 0.17992,-0.35984 0.0776,-0.16227 0.1658,-0.33513 0.26458,-0.51858 0.0988,-0.1905 0.19402,-0.35983 0.28575,-0.508 0.0988,-0.15522 0.17991,-0.26458 0.24341,-0.32808 0.0423,-0.0423 0.0882,-0.0635 0.13759,-0.0635 0.0494,0 0.0917,0.0141 0.127,0.0423 0.0353,0.0282 0.0529,0.0635 0.0529,0.10584 0,0.0212 -0.0106,0.0494 -0.0318,0.0847 -0.17639,0.21873 -0.32455,0.45862 -0.4445,0.71967 -0.11994,0.26105 -0.23988,0.51505 -0.35983,0.762 l -0.16933,0.34933 c -0.0917,0.21167 -0.19755,0.44803 -0.3175,0.70909 -0.11995,0.26105 -0.23636,0.53269 -0.34925,0.81491 -0.10583,0.27517 -0.194027,0.54328 -0.264582,0.80433 -0.07055,0.26105 -0.105833,0.49741 -0.105833,0.70908 v 0.17992 c 0.0071,0.0776 0.02469,0.14816 0.05292,0.21166 0.02822,0.0635 0.07055,0.0953 0.127,0.0953 0.104215,0.0274 0.345275,-0.0932 0.550325,-0.1482 0.0423,0.0282 0.0635,0.0635 0.0635,0.10583 0,0.0635 -0.0423,0.12351 -0.127,0.17992 -0.0776,0.0565 -0.29022,0.14118 -0.39606,0.17643 -0.105833,0.0353 -0.0696,0.014 -0.133098,0.014 z"
           style="font-family:'Ms Madi';-inkscape-font-specification:'Ms Madi, Normal';fill:#2a52be;fill-opacity:1"
           id="path4627"
           sodipodi:nodetypes="ccssscccsccsssscsccscsscsccscscc" />
      </g>
      <g
         aria-label="C"
         transform="rotate(6.3237301)"
         id="text15590"
         style="font-size:10.5833px;line-height:1.25;font-family:'Ms Madi';-inkscape-font-specification:'Ms Madi, Normal';fill:#2a52be;stroke-width:0.264583;fill-opacity:1">
        <path
           d="m 111.96187,100.55806 c 0,0 0.74242,-0.33694 1.19876,-0.606511 0.37903,-0.223906 1.34932,-1.050427 1.61037,-1.332648 0.0988,-0.112889 0.17991,-0.236361 0.24341,-0.370416 0.0706,-0.134055 0.10584,-0.271638 0.10584,-0.412749 0,-0.232833 -0.0776,-0.412749 -0.23284,-0.539748 -0.15522,-0.134055 -0.34572,-0.229305 -0.57149,-0.285749 -0.22578,-0.05645 -0.45156,-0.08467 -0.67734,-0.08467 -0.0917,0 -0.18697,0.0035 -0.28574,0.01058 -0.0988,0.0071 -0.19756,0.01764 -0.29634,0.03175 -0.79022,0.112889 -2.77417,0.840431 -3.91027,1.861663 -0.8879,1.004585 -1.6989,2.643308 -1.6989,3.144258 0,0.43744 0.10936,0.83608 0.32809,1.19591 0.21872,0.35983 0.52211,0.64205 0.91016,0.84666 0.39511,0.21167 0.85019,0.3175 1.36525,0.3175 0.38805,0 0.79375,-0.0741 1.21708,-0.22225 0.42333,-0.14111 0.85724,-0.40216 1.30174,-0.78316 0.45155,-0.381 0.90311,-0.91722 1.35466,-1.60866 0.0212,-0.0353 0.06,-0.06 0.11642,-0.0741 0.11289,0 0.16933,0.0494 0.16933,0.14817 0,0.0282 -0.0106,0.0599 -0.0318,0.0952 -0.28927,0.51505 -0.63852,0.98425 -1.04774,1.40758 -0.40217,0.41627 -0.86431,0.74788 -1.38642,0.99483 -0.51505,0.254 -1.08655,0.381 -1.71449,0.381 l 7e-5,5e-5 c -0.57855,0 -1.09008,-0.11994 -1.53458,-0.35983 -0.43744,-0.23989 -0.78316,-0.56092 -1.03716,-0.96308 -0.24695,-0.40923 -0.37042,-0.85725 -0.37042,-1.34408 0,-0.35983 0.06,-0.71967 0.17992,-1.0795 0.11994,-0.36689 0.28222,-0.71966 0.48683,-1.05833 0.672,-1.236075 1.74378,-1.935845 2.88922,-2.487072 0.74789,-0.359833 1.52752,-0.596193 2.33891,-0.709082 0.10583,-0.01411 0.21167,-0.0247 0.3175,-0.03175 0.10583,-0.0071 0.21167,-0.01058 0.3175,-0.01058 0.28222,0 0.56444,0.03881 0.84666,0.116417 0.28928,0.07761 0.52917,0.201082 0.71967,0.370415 0.19755,0.169333 0.29633,0.398637 0.29633,0.687914 0,0.162277 -0.0353,0.321027 -0.10583,0.476249 -0.0706,0.155222 -0.16228,0.296333 -0.27517,0.423332 -0.28222,0.33161 -1.39052,1.280292 -1.7695,1.574857 -0.4229,0.32871 -1.57599,0.66844 -1.57599,0.66844"
           id="path18045"
           sodipodi:nodetypes="csccscsssscsscsccccscccccccsccccssccsscsc"
           style="fill:#2a52be;fill-opacity:1" />
      </g>
    </g>
  </g>
</svg>
