<?xml version="1.0" standalone="no"?>
<!DOCTYPE svg PUBLIC "-//W3C//DTD SVG 20010904//EN"
 "http://www.w3.org/TR/2001/REC-SVG-20010904/DTD/svg10.dtd">
<svg version="1.0" xmlns="http://www.w3.org/2000/svg"
 width="700.000000pt" height="700.000000pt" viewBox="0 0 700.000000 700.000000"
 preserveAspectRatio="xMidYMid meet">
<metadata>
Created by potrace 1.14, written by Peter Selinger 2001-2017
</metadata>
<g transform="translate(0.000000,700.000000) scale(0.100000,-0.100000)"
fill="#000000" stroke="none">
<path d="M1909 6616 c-2 -2 -33 -7 -68 -10 -79 -8 -229 -56 -307 -97 -324
-173 -507 -519 -541 -1024 -8 -114 -8 -232 0 -635 6 -331 -2 -441 -44 -600
-55 -207 -166 -335 -330 -381 -24 -6 -84 -13 -134 -15 -49 -2 -93 -3 -97 -3
-5 -1 -8 -99 -8 -218 l0 -218 101 -2 c168 -4 284 -54 365 -160 45 -59 94 -192
109 -298 3 -23 7 -52 10 -65 7 -36 18 -252 18 -345 0 -44 -3 -240 -8 -435 -8
-380 -8 -627 -1 -700 11 -104 19 -166 22 -185 74 -401 228 -620 519 -735 197
-78 358 -104 650 -105 l190 0 0 203 c0 112 -2 207 -5 210 -3 4 -91 8 -196 8
-196 1 -256 9 -354 47 -183 70 -290 219 -335 467 -27 145 -29 200 -30 770 -1
316 -4 599 -8 628 -4 28 -10 76 -13 105 -14 134 -68 330 -120 443 -66 141
-196 299 -279 339 -19 8 -37 20 -40 25 -3 5 16 23 42 41 111 77 231 223 293
356 35 75 86 223 95 275 3 18 10 51 15 73 8 38 18 105 26 185 2 19 3 139 2
265 -3 670 -2 749 14 832 58 299 187 472 386 519 34 8 136 13 280 14 124 0
228 3 231 5 2 3 5 98 5 213 l1 207 -227 2 c-124 1 -227 1 -229 -1z"/>
<path d="M4639 6614 c-4 -38 -3 -417 2 -419 3 -2 110 -5 237 -6 128 0 251 -5
274 -11 195 -43 327 -221 385 -518 14 -71 17 -163 18 -565 2 -467 5 -539 26
-675 52 -332 182 -576 394 -740 54 -41 67 -60 43 -60 -15 0 -112 -74 -155
-119 -81 -84 -161 -231 -212 -386 -31 -93 -35 -110 -52 -210 -5 -33 -12 -71
-14 -84 -19 -112 -22 -258 -14 -951 4 -314 -1 -389 -31 -540 -51 -249 -135
-380 -295 -459 -103 -51 -178 -63 -390 -65 -105 -1 -195 -5 -200 -8 -7 -4 -10
-82 -10 -210 l0 -203 190 0 c241 1 340 11 490 52 50 13 97 25 105 27 39 10
171 74 220 107 208 142 340 399 375 734 4 33 9 76 11 95 5 44 5 359 0 505 -33
869 -21 1065 79 1270 79 160 200 232 402 237 l98 3 0 219 0 219 -65 -1 c-248
-1 -406 114 -485 352 -12 37 -24 90 -42 186 -3 19 -7 265 -8 545 -2 498 -6
606 -30 744 -2 14 -7 42 -10 61 -17 100 -61 237 -110 345 -92 202 -262 370
-462 456 -26 11 -88 32 -138 46 -83 23 -111 25 -357 30 -150 3 -268 2 -269 -3z"/>
<path d="M3770 5626 c-27 -7 -291 -161 -665 -386 -341 -205 -640 -385 -663
-399 -24 -14 -56 -33 -70 -42 -15 -9 -198 -119 -407 -244 -209 -125 -397 -244
-418 -264 -48 -45 -77 -106 -77 -160 0 -53 33 -129 68 -157 15 -12 295 -182
622 -379 1744 -1049 1605 -968 1653 -967 82 2 159 47 197 114 19 33 24 56 23
104 -2 68 -17 107 -61 150 -22 22 -684 427 -817 500 -11 6 -231 138 -490 294
-522 314 -542 326 -568 338 -25 11 -34 5 268 185 143 85 447 266 675 402 228
136 429 255 445 265 193 112 475 286 491 304 73 77 79 211 12 283 -48 53 -143
78 -218 59z"/>
<path d="M3119 4365 c-108 -27 -153 -84 -152 -192 0 -52 5 -71 29 -110 26 -41
52 -61 189 -146 88 -54 167 -101 175 -104 8 -4 44 -25 80 -46 36 -22 79 -48
95 -57 17 -9 75 -44 130 -77 208 -125 581 -347 612 -364 17 -10 50 -30 73 -44
38 -24 82 -50 135 -79 11 -6 31 -19 45 -27 14 -9 107 -65 208 -125 100 -60
182 -111 182 -114 0 -5 -12 -12 -95 -60 -16 -9 -237 -141 -490 -292 -253 -151
-642 -384 -865 -517 -223 -133 -422 -258 -442 -278 -84 -79 -84 -230 -2 -303
61 -53 141 -75 205 -55 22 7 562 325 619 364 14 10 45 29 70 43 25 14 133 78
240 143 107 65 207 125 222 134 16 9 109 66 209 126 100 61 198 120 218 131
209 122 632 382 654 402 68 64 87 171 44 245 -29 48 -78 97 -124 124 -28 15
-907 544 -1460 878 -101 60 -191 115 -200 120 -10 6 -113 67 -229 137 -116 70
-223 132 -238 137 -42 17 -89 19 -137 6z"/>
</g>
</svg>
