<?xml version="1.0" encoding="UTF-8" standalone="no"?>
<svg
   width="285.75mm"
   height="285.75mm"
   viewBox="0 0 285.75 285.75"
   version="1.1"
   id="svg1037"
   inkscape:version="1.1 (1:1.1+202105261518+ce6663b3b7)"
   sodipodi:docname="IconOnly_Orig.svg"
   xmlns:inkscape="http://www.inkscape.org/namespaces/inkscape"
   xmlns:sodipodi="http://sodipodi.sourceforge.net/DTD/sodipodi-0.dtd"
   xmlns="http://www.w3.org/2000/svg"
   xmlns:svg="http://www.w3.org/2000/svg"
   xmlns:rdf="http://www.w3.org/1999/02/22-rdf-syntax-ns#"
   xmlns:cc="http://creativecommons.org/ns#"
   xmlns:dc="http://purl.org/dc/elements/1.1/">
  <defs
     id="defs1031" />
  <sodipodi:namedview
     id="base"
     pagecolor="#ffffff"
     bordercolor="#666666"
     borderopacity="1.0"
     inkscape:pageopacity="0.0"
     inkscape:pageshadow="2"
     inkscape:zoom="0.35"
     inkscape:cx="144.28571"
     inkscape:cy="548.57143"
     inkscape:document-units="mm"
     inkscape:current-layer="layer1"
     inkscape:document-rotation="0"
     showgrid="false"
     fit-margin-top="0"
     fit-margin-left="0"
     fit-margin-right="0"
     fit-margin-bottom="0"
     inkscape:window-width="1280"
     inkscape:window-height="735"
     inkscape:window-x="0"
     inkscape:window-y="0"
     inkscape:window-maximized="1"
     inkscape:pagecheckerboard="0" />
  <metadata
     id="metadata1034">
    <rdf:RDF>
      <cc:Work
         rdf:about="">
        <dc:format>image/svg+xml</dc:format>
        <dc:type
           rdf:resource="http://purl.org/dc/dcmitype/StillImage" />
        <dc:title />
      </cc:Work>
    </rdf:RDF>
  </metadata>
  <g
     inkscape:label="Layer 1"
     inkscape:groupmode="layer"
     id="layer1"
     transform="translate(-67.608492,-109.18607)">
    <g
       id="g1058">
      <g
         aria-label="{"
         id="text28-4-8-1-4"
         style="font-style:normal;font-variant:normal;font-weight:normal;font-stretch:normal;font-size:52.9167px;line-height:1.25;font-family:'Inconsolata ExtraCondensed';-inkscape-font-specification:'Inconsolata ExtraCondensed, ';fill:#838996;fill-opacity:1;stroke:none;stroke-width:0.264583"
         transform="matrix(6.0465786,0,0,6.0465786,-280.89099,-263.31078)">
        <path
           d="m 72.216007,106.29447 q -2.645835,0 -4.49792,-0.79375 -1.852084,-0.74084 -2.751668,-2.75167 -0.899584,-2.01084 -0.79375,-5.715006 l 0.105833,-5.29167 q 0,-2.328335 -0.370417,-3.598335 -0.370417,-1.322918 -1.111251,-1.799168 -0.740833,-0.529167 -1.852084,-0.529167 h -0.740834 v -2.963335 h 0.740834 q 1.111251,0 1.852084,-0.582084 0.793751,-0.582084 1.164168,-1.799168 0.423333,-1.27 0.423333,-3.280835 L 64.278502,73.38028 q 0,-3.069169 0.79375,-5.080003 0.846668,-2.063752 2.381252,-3.069169 1.587501,-1.058334 3.810002,-1.058334 h 2.328335 v 2.910419 h -2.751668 q -1.693335,0 -2.592919,1.481667 -0.899583,1.428751 -0.899583,4.233336 l 0.105833,3.704169 q 0,1.957918 -0.370417,3.492502 -0.370417,1.481668 -1.111251,2.592918 -0.740833,1.058334 -1.852084,1.746251 1.058334,0.476251 1.746251,1.587501 0.740834,1.058334 1.111251,2.698752 0.370417,1.640417 0.370417,3.915836 l -0.05292,4.445002 q 0,2.381252 0.423333,3.810003 0.476251,1.42875 1.428751,2.01083 1.005418,0.635 2.540002,0.635 h 1.852084 v 2.85751 z"
           style="font-style:normal;font-variant:normal;font-weight:normal;font-stretch:normal;font-size:52.9167px;font-family:'Inconsolata ExtraCondensed';-inkscape-font-specification:'Inconsolata ExtraCondensed, ';fill:#838996;fill-opacity:1;stroke-width:0.264583"
           id="path144-2-5-0" />
      </g>
      <g
         aria-label="}"
         id="text32-8-9-2-3"
         style="font-style:normal;font-variant:normal;font-weight:normal;font-stretch:normal;font-size:52.9167px;line-height:1.25;font-family:'Inconsolata ExtraCondensed';-inkscape-font-specification:'Inconsolata ExtraCondensed, ';fill:#838996;fill-opacity:1;stroke:none;stroke-width:0.264583"
         transform="matrix(6.0465786,0,0,6.0465786,-280.89099,-263.31078)">
        <path
           d="m 90.366667,106.29449 h -1.375835 v -2.8575 h 1.905002 q 1.534584,0 2.487084,-0.635 1.005418,-0.58209 1.428751,-2.01084 0.476251,-1.428748 0.476251,-3.81 l -0.105834,-4.445003 q 0,-2.275418 0.370417,-3.915835 0.423334,-1.640418 1.111251,-2.698752 0.740833,-1.111251 1.746251,-1.587501 -1.058334,-0.687917 -1.799168,-1.746251 -0.740834,-1.111251 -1.111251,-2.592918 -0.370417,-1.534584 -0.370417,-3.492502 l 0.05292,-3.704169 q 0,-2.804585 -0.899584,-4.233336 -0.846667,-1.481668 -2.540001,-1.481668 h -2.804585 v -2.910418 h 2.381251 q 2.222501,0 3.757086,1.058334 1.587501,1.005417 2.381251,3.069169 0.793751,2.010834 0.793751,5.080003 l -0.05292,3.810002 q 0,2.010834 0.370417,3.280835 0.423333,1.217084 1.164167,1.799168 0.793748,0.582084 1.904998,0.582084 h 0.68792 v 2.963335 h -0.74083 q -1.00542,0 -1.799171,0.529167 -0.740834,0.47625 -1.164167,1.799167 -0.370417,1.270001 -0.370417,3.598336 l 0.15875,5.29167 q 0.15875,3.704173 -0.793751,5.715003 -0.899584,2.01083 -2.751668,2.75167 -1.852084,0.79375 -4.497919,0.79375 z"
           style="font-style:normal;font-variant:normal;font-weight:normal;font-stretch:normal;font-size:52.9167px;font-family:'Inconsolata ExtraCondensed';-inkscape-font-specification:'Inconsolata ExtraCondensed, ';fill:#838996;fill-opacity:1;stroke-width:0.264583"
           id="path147-0-0-7" />
      </g>
      <g
         aria-label="&lt;"
         id="text36-8-6-3-8"
         style="font-style:normal;font-variant:normal;font-weight:normal;font-stretch:normal;font-size:37.0417px;line-height:1.25;font-family:Comfortaa;-inkscape-font-specification:Comfortaa;fill:#2a52be;fill-opacity:1;stroke:none;stroke-width:0.264583"
         transform="matrix(6.0465786,0,0,6.0465786,-280.89099,-263.31078)">
        <path
           d="M 82.738237,90.921206 68.329016,82.253448 q -0.777876,-0.4445 -0.777876,-1.296459 0,-0.703793 0.777876,-1.29646 l 14.409221,-8.667757 q 0.703792,-0.333376 1.407584,0 0.740834,0.296333 0.740834,1.148292 0,0.851959 -0.703792,1.29646 L 70.329268,81.697823 V 80.10503 l 13.853595,8.29734 q 0.703792,0.481542 0.703792,1.259418 0,0.592667 -0.370417,0.963084 -0.333375,0.370417 -0.851959,0.481542 -0.481542,0.111125 -0.926042,-0.185208 z"
           style="font-style:normal;font-variant:normal;font-weight:normal;font-stretch:normal;font-size:37.0417px;font-family:Comfortaa;-inkscape-font-specification:Comfortaa;fill:#2a52be;fill-opacity:1;stroke-width:0.264583"
           id="path150-6-7-69" />
      </g>
      <g
         aria-label="&gt;"
         id="text40-3-2-6-6"
         style="font-style:normal;font-variant:normal;font-weight:normal;font-stretch:normal;font-size:37.0417px;line-height:1.25;font-family:Comfortaa;-inkscape-font-specification:Comfortaa;fill:#2a52be;fill-opacity:1;stroke:none;stroke-width:0.264583"
         transform="matrix(6.0465786,0,0,6.0465786,-280.89099,-263.31078)">
        <path
           d="m 79.791523,99.425669 q -0.4445,0.296333 -0.963084,0.185208 -0.481542,-0.111125 -0.851959,-0.481542 -0.333375,-0.370417 -0.333375,-0.963084 0,-0.777876 0.703792,-1.259418 l 13.890637,-8.29734 v 1.592793 L 78.346897,81.941987 q -0.703792,-0.4445 -0.703792,-1.296459 0,-0.851959 0.703792,-1.148293 0.740834,-0.333375 1.444626,0 l 14.409221,8.667757 q 0.777876,0.592668 0.777876,1.29646 0,0.851959 -0.777876,1.296459 z"
           style="font-style:normal;font-variant:normal;font-weight:normal;font-stretch:normal;font-size:37.0417px;font-family:Comfortaa;-inkscape-font-specification:Comfortaa;fill:#2a52be;fill-opacity:1;stroke-width:0.264583"
           id="path153-4-0-0" />
      </g>
    </g>
  </g>
</svg>
